<mxfile host="Electron" modified="2023-07-26T11:06:29.610Z" agent="Mozilla/5.0 (Windows NT 10.0; Win64; x64) AppleWebKit/537.36 (KHTML, like Gecko) draw.io/21.6.5 Chrome/114.0.5735.243 Electron/25.3.1 Safari/537.36" etag="fcUTXm9wMn8kZr6I-l2G" version="21.6.5" type="device">
  <diagram name="Page-1" id="7fsHa3OjhIBsU9HZ9K5G">
    <mxGraphModel dx="1416" dy="818" grid="1" gridSize="10" guides="1" tooltips="1" connect="1" arrows="1" fold="1" page="1" pageScale="1" pageWidth="2336" pageHeight="1654" math="0" shadow="0">
      <root>
        <mxCell id="0" />
        <mxCell id="1" parent="0" />
        <mxCell id="qrZueribwzPecQ5DM2h3-26" value="" style="endArrow=classic;html=1;rounded=0;entryX=0.25;entryY=0;entryDx=0;entryDy=0;exitX=0;exitY=0.5;exitDx=0;exitDy=0;dashed=1;dashPattern=12 12;" edge="1" parent="1" source="qrZueribwzPecQ5DM2h3-51" target="qrZueribwzPecQ5DM2h3-64">
          <mxGeometry width="50" height="50" relative="1" as="geometry">
            <mxPoint x="739.76" y="540" as="sourcePoint" />
            <mxPoint x="739.76" y="590" as="targetPoint" />
            <Array as="points">
              <mxPoint x="660" y="485" />
            </Array>
          </mxGeometry>
        </mxCell>
        <mxCell id="qrZueribwzPecQ5DM2h3-1" value="AXI-Stream&lt;br&gt;Switch" style="rounded=1;whiteSpace=wrap;html=1;" vertex="1" parent="1">
          <mxGeometry x="850" y="400" width="120" height="310" as="geometry" />
        </mxCell>
        <mxCell id="qrZueribwzPecQ5DM2h3-2" value="Layer Row Readout" style="rounded=1;whiteSpace=wrap;html=1;" vertex="1" parent="1">
          <mxGeometry x="1050" y="480" width="120" height="70" as="geometry" />
        </mxCell>
        <mxCell id="qrZueribwzPecQ5DM2h3-3" value="Layer Row Readout" style="rounded=1;whiteSpace=wrap;html=1;" vertex="1" parent="1">
          <mxGeometry x="1050" y="560" width="120" height="70" as="geometry" />
        </mxCell>
        <mxCell id="qrZueribwzPecQ5DM2h3-4" value="Housekeeping Frames" style="rounded=1;whiteSpace=wrap;html=1;" vertex="1" parent="1">
          <mxGeometry x="1050" y="640" width="120" height="70" as="geometry" />
        </mxCell>
        <mxCell id="qrZueribwzPecQ5DM2h3-5" value="Layer Row Readout" style="rounded=1;whiteSpace=wrap;html=1;" vertex="1" parent="1">
          <mxGeometry x="1050" y="400" width="120" height="70" as="geometry" />
        </mxCell>
        <mxCell id="qrZueribwzPecQ5DM2h3-6" value="" style="endArrow=classic;html=1;rounded=0;" edge="1" parent="1">
          <mxGeometry width="50" height="50" relative="1" as="geometry">
            <mxPoint x="1050" y="434.18" as="sourcePoint" />
            <mxPoint x="1000" y="434.18" as="targetPoint" />
          </mxGeometry>
        </mxCell>
        <mxCell id="qrZueribwzPecQ5DM2h3-7" value="" style="endArrow=classic;html=1;rounded=0;" edge="1" parent="1">
          <mxGeometry width="50" height="50" relative="1" as="geometry">
            <mxPoint x="1050" y="514.18" as="sourcePoint" />
            <mxPoint x="1000" y="514.18" as="targetPoint" />
          </mxGeometry>
        </mxCell>
        <mxCell id="qrZueribwzPecQ5DM2h3-8" value="" style="endArrow=classic;html=1;rounded=0;" edge="1" parent="1">
          <mxGeometry width="50" height="50" relative="1" as="geometry">
            <mxPoint x="1050" y="594.18" as="sourcePoint" />
            <mxPoint x="1000" y="594.18" as="targetPoint" />
          </mxGeometry>
        </mxCell>
        <mxCell id="qrZueribwzPecQ5DM2h3-9" value="" style="endArrow=classic;html=1;rounded=0;" edge="1" parent="1">
          <mxGeometry width="50" height="50" relative="1" as="geometry">
            <mxPoint x="1050" y="679.52" as="sourcePoint" />
            <mxPoint x="1000" y="679.52" as="targetPoint" />
          </mxGeometry>
        </mxCell>
        <mxCell id="qrZueribwzPecQ5DM2h3-11" value="" style="endArrow=classic;startArrow=classic;html=1;rounded=0;" edge="1" parent="1">
          <mxGeometry width="50" height="50" relative="1" as="geometry">
            <mxPoint x="1180" y="434.65999999999997" as="sourcePoint" />
            <mxPoint x="1250" y="434.65999999999997" as="targetPoint" />
          </mxGeometry>
        </mxCell>
        <mxCell id="qrZueribwzPecQ5DM2h3-12" value="SPI + Interrupt" style="text;html=1;strokeColor=none;fillColor=none;align=center;verticalAlign=middle;whiteSpace=wrap;rounded=0;" vertex="1" parent="1">
          <mxGeometry x="1250" y="420" width="90" height="30" as="geometry" />
        </mxCell>
        <mxCell id="qrZueribwzPecQ5DM2h3-13" value="" style="endArrow=classic;startArrow=classic;html=1;rounded=0;" edge="1" parent="1">
          <mxGeometry width="50" height="50" relative="1" as="geometry">
            <mxPoint x="1180" y="514.66" as="sourcePoint" />
            <mxPoint x="1250" y="514.66" as="targetPoint" />
          </mxGeometry>
        </mxCell>
        <mxCell id="qrZueribwzPecQ5DM2h3-14" value="SPI + Interrupt" style="text;html=1;strokeColor=none;fillColor=none;align=center;verticalAlign=middle;whiteSpace=wrap;rounded=0;" vertex="1" parent="1">
          <mxGeometry x="1250" y="500" width="90" height="30" as="geometry" />
        </mxCell>
        <mxCell id="qrZueribwzPecQ5DM2h3-15" value="" style="endArrow=classic;startArrow=classic;html=1;rounded=0;" edge="1" parent="1">
          <mxGeometry width="50" height="50" relative="1" as="geometry">
            <mxPoint x="1180" y="594.66" as="sourcePoint" />
            <mxPoint x="1250" y="594.66" as="targetPoint" />
          </mxGeometry>
        </mxCell>
        <mxCell id="qrZueribwzPecQ5DM2h3-16" value="SPI + Interrupt" style="text;html=1;strokeColor=none;fillColor=none;align=center;verticalAlign=middle;whiteSpace=wrap;rounded=0;" vertex="1" parent="1">
          <mxGeometry x="1250" y="580" width="90" height="30" as="geometry" />
        </mxCell>
        <mxCell id="qrZueribwzPecQ5DM2h3-17" value="" style="endArrow=classic;startArrow=classic;html=1;rounded=0;" edge="1" parent="1">
          <mxGeometry width="50" height="50" relative="1" as="geometry">
            <mxPoint x="1180" y="674.66" as="sourcePoint" />
            <mxPoint x="1250" y="674.66" as="targetPoint" />
          </mxGeometry>
        </mxCell>
        <mxCell id="qrZueribwzPecQ5DM2h3-18" value="XADC etc.." style="text;html=1;strokeColor=none;fillColor=none;align=center;verticalAlign=middle;whiteSpace=wrap;rounded=0;" vertex="1" parent="1">
          <mxGeometry x="1250" y="660" width="90" height="30" as="geometry" />
        </mxCell>
        <mxCell id="qrZueribwzPecQ5DM2h3-19" value="AXI-Stream&lt;br&gt;FIFO" style="rounded=1;whiteSpace=wrap;html=1;" vertex="1" parent="1">
          <mxGeometry x="700" y="450" width="80" height="70" as="geometry" />
        </mxCell>
        <mxCell id="qrZueribwzPecQ5DM2h3-20" value="" style="endArrow=classic;html=1;rounded=0;entryX=1;entryY=0.5;entryDx=0;entryDy=0;" edge="1" parent="1" target="qrZueribwzPecQ5DM2h3-50">
          <mxGeometry width="50" height="50" relative="1" as="geometry">
            <mxPoint x="840" y="479.76" as="sourcePoint" />
            <mxPoint x="810" y="479.76" as="targetPoint" />
          </mxGeometry>
        </mxCell>
        <mxCell id="qrZueribwzPecQ5DM2h3-21" value="AXI-Stream &lt;br&gt;Switch&lt;br&gt;&lt;br&gt;SW Interface" style="rounded=1;whiteSpace=wrap;html=1;connectable=0;fontStyle=1;verticalAlign=top;" vertex="1" parent="1">
          <mxGeometry x="490" y="400" width="120" height="310" as="geometry" />
        </mxCell>
        <mxCell id="qrZueribwzPecQ5DM2h3-52" style="edgeStyle=orthogonalEdgeStyle;rounded=0;orthogonalLoop=1;jettySize=auto;html=1;entryX=0;entryY=0.5;entryDx=0;entryDy=0;exitX=1;exitY=0.75;exitDx=0;exitDy=0;" edge="1" parent="1" source="qrZueribwzPecQ5DM2h3-22" target="qrZueribwzPecQ5DM2h3-28">
          <mxGeometry relative="1" as="geometry" />
        </mxCell>
        <mxCell id="qrZueribwzPecQ5DM2h3-22" value="FTDI UART AXIS Driver" style="rounded=1;whiteSpace=wrap;html=1;" vertex="1" parent="1">
          <mxGeometry x="310" y="505" width="120" height="80" as="geometry" />
        </mxCell>
        <mxCell id="qrZueribwzPecQ5DM2h3-63" style="edgeStyle=orthogonalEdgeStyle;rounded=0;orthogonalLoop=1;jettySize=auto;html=1;entryX=0;entryY=0.5;entryDx=0;entryDy=0;exitX=1;exitY=0.75;exitDx=0;exitDy=0;" edge="1" parent="1" source="qrZueribwzPecQ5DM2h3-23" target="qrZueribwzPecQ5DM2h3-61">
          <mxGeometry relative="1" as="geometry" />
        </mxCell>
        <mxCell id="qrZueribwzPecQ5DM2h3-23" value="SPI Driver" style="rounded=1;whiteSpace=wrap;html=1;" vertex="1" parent="1">
          <mxGeometry x="310" y="410" width="120" height="80" as="geometry" />
        </mxCell>
        <mxCell id="qrZueribwzPecQ5DM2h3-24" value="FTDI FIFO" style="rounded=1;whiteSpace=wrap;html=1;" vertex="1" parent="1">
          <mxGeometry x="310" y="615" width="120" height="75" as="geometry" />
        </mxCell>
        <mxCell id="qrZueribwzPecQ5DM2h3-38" style="edgeStyle=orthogonalEdgeStyle;rounded=0;orthogonalLoop=1;jettySize=auto;html=1;entryX=1;entryY=0.5;entryDx=0;entryDy=0;exitX=0;exitY=0.25;exitDx=0;exitDy=0;" edge="1" parent="1" source="qrZueribwzPecQ5DM2h3-25" target="qrZueribwzPecQ5DM2h3-35">
          <mxGeometry relative="1" as="geometry" />
        </mxCell>
        <mxCell id="qrZueribwzPecQ5DM2h3-65" style="edgeStyle=orthogonalEdgeStyle;rounded=0;orthogonalLoop=1;jettySize=auto;html=1;entryX=0.5;entryY=0;entryDx=0;entryDy=0;" edge="1" parent="1" source="qrZueribwzPecQ5DM2h3-25" target="qrZueribwzPecQ5DM2h3-64">
          <mxGeometry relative="1" as="geometry" />
        </mxCell>
        <mxCell id="qrZueribwzPecQ5DM2h3-25" value="Register File Decoder" style="rounded=1;whiteSpace=wrap;html=1;" vertex="1" parent="1">
          <mxGeometry x="680" y="590" width="120" height="80" as="geometry" />
        </mxCell>
        <mxCell id="qrZueribwzPecQ5DM2h3-41" style="edgeStyle=orthogonalEdgeStyle;rounded=0;orthogonalLoop=1;jettySize=auto;html=1;entryX=0;entryY=0.5;entryDx=0;entryDy=0;dashed=1;exitX=1;exitY=0.5;exitDx=0;exitDy=0;" edge="1" parent="1" source="qrZueribwzPecQ5DM2h3-28" target="qrZueribwzPecQ5DM2h3-36">
          <mxGeometry relative="1" as="geometry">
            <Array as="points">
              <mxPoint x="490" y="560" />
              <mxPoint x="530" y="560" />
              <mxPoint x="530" y="650" />
            </Array>
          </mxGeometry>
        </mxCell>
        <mxCell id="qrZueribwzPecQ5DM2h3-28" value="S" style="rounded=1;whiteSpace=wrap;html=1;fontStyle=1;fillColor=#d5e8d4;strokeColor=#82b366;" vertex="1" parent="1">
          <mxGeometry x="460" y="555" width="30" height="20" as="geometry" />
        </mxCell>
        <mxCell id="qrZueribwzPecQ5DM2h3-32" style="edgeStyle=orthogonalEdgeStyle;rounded=0;orthogonalLoop=1;jettySize=auto;html=1;entryX=1;entryY=0.25;entryDx=0;entryDy=0;" edge="1" parent="1" source="qrZueribwzPecQ5DM2h3-29" target="qrZueribwzPecQ5DM2h3-22">
          <mxGeometry relative="1" as="geometry">
            <mxPoint x="430" y="525" as="targetPoint" />
          </mxGeometry>
        </mxCell>
        <mxCell id="qrZueribwzPecQ5DM2h3-29" value="M" style="rounded=1;whiteSpace=wrap;html=1;fontStyle=1;fillColor=#d5e8d4;strokeColor=#82b366;" vertex="1" parent="1">
          <mxGeometry x="460" y="515" width="30" height="20" as="geometry" />
        </mxCell>
        <mxCell id="qrZueribwzPecQ5DM2h3-33" value="UART Lite Core" style="rounded=1;whiteSpace=wrap;html=1;" vertex="1" parent="1">
          <mxGeometry x="160" y="505" width="120" height="80" as="geometry" />
        </mxCell>
        <mxCell id="qrZueribwzPecQ5DM2h3-34" value="AL" style="rounded=1;whiteSpace=wrap;html=1;fontStyle=1;fillColor=#d5e8d4;strokeColor=#82b366;" vertex="1" parent="1">
          <mxGeometry x="280" y="535" width="30" height="20" as="geometry" />
        </mxCell>
        <mxCell id="qrZueribwzPecQ5DM2h3-40" style="edgeStyle=orthogonalEdgeStyle;rounded=0;orthogonalLoop=1;jettySize=auto;html=1;entryX=1;entryY=0.5;entryDx=0;entryDy=0;dashed=1;" edge="1" parent="1" source="qrZueribwzPecQ5DM2h3-35" target="qrZueribwzPecQ5DM2h3-29">
          <mxGeometry relative="1" as="geometry" />
        </mxCell>
        <mxCell id="qrZueribwzPecQ5DM2h3-35" value="S" style="rounded=1;whiteSpace=wrap;html=1;fontStyle=1;fillColor=#d5e8d4;strokeColor=#82b366;" vertex="1" parent="1">
          <mxGeometry x="610" y="600" width="30" height="20" as="geometry" />
        </mxCell>
        <mxCell id="qrZueribwzPecQ5DM2h3-37" style="edgeStyle=orthogonalEdgeStyle;rounded=0;orthogonalLoop=1;jettySize=auto;html=1;entryX=0;entryY=0.75;entryDx=0;entryDy=0;" edge="1" parent="1" source="qrZueribwzPecQ5DM2h3-36" target="qrZueribwzPecQ5DM2h3-25">
          <mxGeometry relative="1" as="geometry" />
        </mxCell>
        <mxCell id="qrZueribwzPecQ5DM2h3-36" value="M" style="rounded=1;whiteSpace=wrap;html=1;fontStyle=1;fillColor=#d5e8d4;strokeColor=#82b366;" vertex="1" parent="1">
          <mxGeometry x="610" y="640" width="30" height="20" as="geometry" />
        </mxCell>
        <mxCell id="qrZueribwzPecQ5DM2h3-44" value="S" style="rounded=1;whiteSpace=wrap;html=1;fontStyle=1;fillColor=#d5e8d4;strokeColor=#82b366;" vertex="1" parent="1">
          <mxGeometry x="960" y="425" width="30" height="20" as="geometry" />
        </mxCell>
        <mxCell id="qrZueribwzPecQ5DM2h3-45" value="S" style="rounded=1;whiteSpace=wrap;html=1;fontStyle=1;fillColor=#d5e8d4;strokeColor=#82b366;" vertex="1" parent="1">
          <mxGeometry x="960" y="505" width="30" height="20" as="geometry" />
        </mxCell>
        <mxCell id="qrZueribwzPecQ5DM2h3-46" value="S" style="rounded=1;whiteSpace=wrap;html=1;fontStyle=1;fillColor=#d5e8d4;strokeColor=#82b366;" vertex="1" parent="1">
          <mxGeometry x="960" y="585" width="30" height="20" as="geometry" />
        </mxCell>
        <mxCell id="qrZueribwzPecQ5DM2h3-47" value="S" style="rounded=1;whiteSpace=wrap;html=1;fontStyle=1;fillColor=#d5e8d4;strokeColor=#82b366;" vertex="1" parent="1">
          <mxGeometry x="960" y="670" width="30" height="20" as="geometry" />
        </mxCell>
        <mxCell id="qrZueribwzPecQ5DM2h3-49" value="" style="endArrow=classic;html=1;rounded=0;" edge="1" parent="1" target="qrZueribwzPecQ5DM2h3-48">
          <mxGeometry width="50" height="50" relative="1" as="geometry">
            <mxPoint x="850" y="480" as="sourcePoint" />
            <mxPoint x="800" y="480" as="targetPoint" />
          </mxGeometry>
        </mxCell>
        <mxCell id="qrZueribwzPecQ5DM2h3-48" value="M" style="rounded=1;whiteSpace=wrap;html=1;fontStyle=1;fillColor=#d5e8d4;strokeColor=#82b366;" vertex="1" parent="1">
          <mxGeometry x="840" y="470" width="30" height="20" as="geometry" />
        </mxCell>
        <mxCell id="qrZueribwzPecQ5DM2h3-50" value="S" style="rounded=1;whiteSpace=wrap;html=1;fontStyle=1;fillColor=#d5e8d4;strokeColor=#82b366;" vertex="1" parent="1">
          <mxGeometry x="770" y="470" width="30" height="20" as="geometry" />
        </mxCell>
        <mxCell id="qrZueribwzPecQ5DM2h3-51" value="M" style="rounded=1;whiteSpace=wrap;html=1;fontStyle=1;fillColor=#d5e8d4;strokeColor=#82b366;" vertex="1" parent="1">
          <mxGeometry x="670" y="475" width="30" height="20" as="geometry" />
        </mxCell>
        <mxCell id="qrZueribwzPecQ5DM2h3-54" value="SPI Core" style="rounded=1;whiteSpace=wrap;html=1;" vertex="1" parent="1">
          <mxGeometry x="160" y="410" width="120" height="80" as="geometry" />
        </mxCell>
        <mxCell id="qrZueribwzPecQ5DM2h3-58" value="M" style="rounded=1;whiteSpace=wrap;html=1;fontStyle=1;fillColor=#d5e8d4;strokeColor=#82b366;" vertex="1" parent="1">
          <mxGeometry x="460" y="622.5" width="30" height="20" as="geometry" />
        </mxCell>
        <mxCell id="qrZueribwzPecQ5DM2h3-59" value="S" style="rounded=1;whiteSpace=wrap;html=1;fontStyle=1;fillColor=#d5e8d4;strokeColor=#82b366;" vertex="1" parent="1">
          <mxGeometry x="460" y="662.5" width="30" height="20" as="geometry" />
        </mxCell>
        <mxCell id="qrZueribwzPecQ5DM2h3-62" style="edgeStyle=orthogonalEdgeStyle;rounded=0;orthogonalLoop=1;jettySize=auto;html=1;entryX=1;entryY=0.25;entryDx=0;entryDy=0;" edge="1" parent="1" source="qrZueribwzPecQ5DM2h3-60" target="qrZueribwzPecQ5DM2h3-23">
          <mxGeometry relative="1" as="geometry" />
        </mxCell>
        <mxCell id="qrZueribwzPecQ5DM2h3-60" value="M" style="rounded=1;whiteSpace=wrap;html=1;fontStyle=1;fillColor=#d5e8d4;strokeColor=#82b366;" vertex="1" parent="1">
          <mxGeometry x="460" y="420" width="30" height="20" as="geometry" />
        </mxCell>
        <mxCell id="qrZueribwzPecQ5DM2h3-61" value="S" style="rounded=1;whiteSpace=wrap;html=1;fontStyle=1;fillColor=#d5e8d4;strokeColor=#82b366;" vertex="1" parent="1">
          <mxGeometry x="460" y="460" width="30" height="20" as="geometry" />
        </mxCell>
        <mxCell id="qrZueribwzPecQ5DM2h3-64" value="Register File Config Bits and readout" style="rounded=1;whiteSpace=wrap;html=1;" vertex="1" parent="1">
          <mxGeometry x="630" y="770" width="120" height="80" as="geometry" />
        </mxCell>
        <mxCell id="qrZueribwzPecQ5DM2h3-66" value="SPI Clock" style="text;html=1;strokeColor=none;fillColor=none;align=center;verticalAlign=middle;whiteSpace=wrap;rounded=0;fontSize=27;fontStyle=1" vertex="1" parent="1">
          <mxGeometry x="870" y="300" width="170" height="30" as="geometry" />
        </mxCell>
        <mxCell id="qrZueribwzPecQ5DM2h3-67" value="Backend Clocking" style="text;html=1;strokeColor=none;fillColor=none;align=center;verticalAlign=middle;whiteSpace=wrap;rounded=0;fontSize=27;fontStyle=1" vertex="1" parent="1">
          <mxGeometry x="280" y="290" width="260" height="30" as="geometry" />
        </mxCell>
        <mxCell id="qrZueribwzPecQ5DM2h3-68" value="" style="endArrow=classic;startArrow=classic;html=1;rounded=0;" edge="1" parent="1">
          <mxGeometry width="50" height="50" relative="1" as="geometry">
            <mxPoint x="160" y="370" as="sourcePoint" />
            <mxPoint x="720" y="370" as="targetPoint" />
          </mxGeometry>
        </mxCell>
        <mxCell id="qrZueribwzPecQ5DM2h3-69" value="" style="endArrow=classic;startArrow=classic;html=1;rounded=0;" edge="1" parent="1">
          <mxGeometry width="50" height="50" relative="1" as="geometry">
            <mxPoint x="770" y="370" as="sourcePoint" />
            <mxPoint x="1300" y="370" as="targetPoint" />
          </mxGeometry>
        </mxCell>
      </root>
    </mxGraphModel>
  </diagram>
</mxfile>
